<svg width="32" height="35" viewBox="0 0 32 35" fill="none" xmlns="http://www.w3.org/2000/svg">
<path d="M11.4579 18.2048C10.8548 18.439 10.1737 18.1836 9.8758 17.6089L4.34195 6.95273C3.69634 5.68993 4.18588 4.15037 5.44872 3.50476C5.52676 3.46929 5.59768 3.43381 5.67578 3.39834C7.10177 2.82367 8.6697 3.66084 9.067 5.10815L9.07407 5.12943L12.217 16.7008C12.3802 17.318 12.0538 17.9707 11.4579 18.2048Z" fill="#F98500"/>
<path d="M11.16 12.8342L9.59212 13.4514C9.30126 13.5579 8.97493 13.416 8.85428 13.1251C8.74076 12.8342 8.88269 12.5008 9.17354 12.3873L10.855 11.7274L11.16 12.8342Z" fill="#FA6D00"/>
<path d="M11.7698 15.0549L10.4219 15.5586C10.131 15.6579 9.81174 15.5231 9.68402 15.2323C9.57051 14.9413 9.71243 14.6079 10.0104 14.4944L11.4719 13.9481L11.7698 15.0549Z" fill="#FA6D00"/>
<path d="M18.1341 7.78279C17.6587 7.45646 17.4175 6.88175 17.524 6.30711C17.7865 4.9875 16.9351 3.70337 15.6084 3.43377C15.5942 3.43377 15.5729 3.42668 15.5587 3.42668C15.0124 3.33445 14.5584 2.94425 14.3881 2.41215C14.3456 2.28445 14.2959 2.15674 14.2391 2.03614C13.6361 0.830044 12.1746 0.340513 10.9685 0.943558C9.82627 1.51113 9.31546 2.8662 9.79786 4.04391C10.0462 4.65405 10.1668 5.20743 9.74824 5.79629C8.96784 6.89595 9.23029 8.42133 10.33 9.19465C10.3371 9.20172 10.3513 9.20879 10.3584 9.21592C10.8337 9.54933 11.0607 10.1311 10.9472 10.6987C10.6918 12.0183 11.5573 13.3024 12.8841 13.5578C14.076 13.7848 15.2465 13.1109 15.651 11.9686C16.8571 12.5717 18.3186 12.0751 18.9216 10.876C19.4608 9.79057 19.1274 8.47808 18.1341 7.78279Z" fill="#598C44"/>
<path d="M23.6678 9.73383C23.3485 9.25136 23.3414 8.62704 23.6536 8.13756C24.3985 7.01656 24.0864 5.49833 22.9655 4.7534C22.9512 4.7463 22.937 4.73211 22.9228 4.72502C22.2276 4.28515 22.2772 3.66082 22.2205 2.94427C22.1212 1.60338 20.9435 0.595936 19.6026 0.695264C18.3326 0.794586 17.3465 1.85169 17.3465 3.12872C17.3465 3.78853 17.2471 4.3419 16.6441 4.73211C15.5089 5.45576 15.1755 6.96694 15.9062 8.10208C15.9134 8.10915 15.9204 8.12336 15.9276 8.13043C16.2397 8.61997 16.2397 9.24429 15.9134 9.72676C15.1826 10.8548 15.5019 12.3659 16.6299 13.1038C17.6444 13.7636 18.9925 13.5791 19.7871 12.671C20.681 13.6784 22.2205 13.7778 23.2279 12.891C24.136 12.0964 24.3205 10.7484 23.6678 9.73383Z" fill="#5F9548"/>
<path d="M27.4632 16.5873L20.6523 14.317L24.4054 3.06491C24.8594 1.70984 26.2429 0.659832 27.6832 0.6953C28.5771 0.716589 29.4142 0.88686 30.1166 1.45443C31.2517 2.36254 31.6987 3.88079 31.2375 5.25715L27.4632 16.5873Z" fill="#FFB531"/>
<path d="M22.9229 10.9116V31.3441H5.89575V10.9116L7.59846 12.0467L9.30118 10.9116L11.0039 12.0467L12.7066 10.9116L14.4093 12.0467L16.112 10.9116L17.8147 12.0467L19.5175 10.9116L21.2202 12.0467L22.9229 10.9116Z" fill="#FFB531"/>
<path d="M22.9229 15.6153V31.3441H5.89575V27.9032C12.1461 25.8032 18.3398 21.9792 22.9229 15.6153Z" fill="#FCAC1F"/>
<path d="M29.7337 10.9116V31.3441H22.9229V10.9116L24.6256 12.0467L26.3283 10.9116L28.031 12.0467L29.7337 10.9116Z" fill="#F98500"/>
<path d="M6.00202 33.6144C8.50971 33.6144 10.5426 31.5815 10.5426 29.0738C10.5426 26.5661 8.50971 24.5332 6.00202 24.5332C3.49431 24.5332 1.46143 26.5661 1.46143 29.0738C1.46143 31.5815 3.49431 33.6144 6.00202 33.6144Z" fill="#F35244"/>
<path d="M15.5445 21.6954L16.112 22.8305C15.4097 23.5329 15.1259 24.5545 15.3671 25.5265L15.5445 26.236H13.2742V25.3704C13.2742 23.8167 14.1539 22.3907 15.5445 21.6954Z" fill="#5F9548"/>
<path d="M12.2171 33.6144C11.5006 33.6144 10.8621 33.1462 10.6563 32.458L9.37928 28.1941C9.0246 27.0093 9.80499 25.6684 11.1175 25.6684C11.756 25.6684 12.3449 26.0019 12.6712 26.5481L13.8418 28.5063V31.9897C13.8418 32.8836 13.1111 33.6144 12.2171 33.6144Z" fill="#FA9F0C"/>
<path d="M16.6015 33.6144C17.3181 33.6144 17.9565 33.1462 18.1623 32.458L19.4393 28.1941C19.8012 26.9951 19.0066 25.6684 17.7011 25.6684C17.0626 25.6684 16.4738 26.0019 16.1474 26.5481L14.9768 28.5063V31.9897C14.9768 32.8836 15.7076 33.6144 16.6015 33.6144Z" fill="#FA9F0C"/>
<path d="M14.4093 25.6684C15.3528 25.6684 16.112 26.4275 16.112 27.3711V31.9117C16.112 32.8553 15.3528 33.6144 14.4093 33.6144C13.4657 33.6144 12.7065 32.8553 12.7065 31.9117V27.3711C12.7065 26.4275 13.4657 25.6684 14.4093 25.6684Z" fill="#FFB531"/>
<path d="M30.4716 1.01453C29.4217 0.170271 27.9815 -0.0851357 26.6122 0.312164C25.2784 0.702367 24.278 1.64596 23.8665 2.88751L21.575 9.76929L21.3054 9.37199L20.3547 10.0035V7.71189L21.9297 6.66185L21.2983 5.71826L20.3476 6.34972V3.74597H19.2125V6.34259L18.2689 5.71119L17.6375 6.65478L19.2125 7.70476V9.99632L18.2689 9.36492L17.6375 10.3085L18.5101 10.8903L17.8077 11.3585L16.4172 10.4362C16.3533 10.3936 16.2894 10.3653 16.2185 10.3511C16.2611 10.2447 16.3178 10.1382 16.3817 10.0389C16.8216 9.36492 16.8216 8.49936 16.3888 7.81827C15.9915 7.21522 16.0057 6.31424 16.4172 5.71119C16.5946 5.45578 17.3182 4.93787 17.5097 4.68246C17.8858 4.18584 17.9283 3.61827 17.9709 3.12164C17.9993 2.73144 18.0276 2.39089 18.1979 2.12839C18.7442 1.25575 19.9006 0.993249 20.7733 1.53954C20.9577 1.65305 21.1138 1.80204 21.2486 1.96522C21.5537 2.34832 21.5821 2.73144 21.6175 3.24935C21.6317 3.42671 21.6459 3.61827 21.6672 3.81692L22.7952 3.67502C22.7739 3.50475 22.7598 3.33448 22.7527 3.1713C22.7101 2.55407 22.6604 1.92264 22.1426 1.26285C21.1139 -0.0425646 19.2267 -0.262503 17.9213 0.759124C17.6516 0.971967 17.4175 1.22737 17.233 1.51826C16.9209 2.01488 16.8783 2.55407 16.8357 3.02232C16.8287 3.12874 16.8216 3.22806 16.8074 3.32739C16.4597 3.09326 16.0624 2.93009 15.6438 2.85205C15.3033 2.79529 15.0195 2.55407 14.9131 2.22772C14.6648 1.4544 14.1256 0.815881 13.402 0.44696C12.6925 0.0709496 11.8624 0 11.0962 0.248311C9.96813 0.624328 9.14518 1.68143 9.04587 2.89461C9.01039 3.35576 9.12391 3.76016 9.23742 4.12198C8.70533 3.24935 7.77588 2.69596 6.75425 2.63211L6.77559 0.113514L5.64045 0.106418L5.62624 1.74528L4.94515 0L3.90933 0.432774L4.59042 2.17805L3.46946 0.986153L2.64648 1.75947L4.37048 3.60407C3.43399 4.56894 3.21405 6.01625 3.83838 7.20815L5.0161 9.47843L6.02354 8.95341L4.84582 6.68313C4.3421 5.71119 4.71812 4.51219 5.69007 4.00847C6.66208 3.50475 7.86105 3.88076 8.36479 4.85273C8.42862 4.98044 8.4783 5.10814 8.52085 5.25003L8.54213 5.32097L6.7117 6.03753L7.1232 7.09463L8.84012 6.42776V6.43483C8.73368 6.83926 8.70533 7.25784 8.77623 7.67641L7.54178 8.15881L7.95328 9.21592L9.17353 8.74059C9.45731 9.21592 9.94685 9.65577 9.94685 9.65577L8.36479 10.273L8.5492 10.7342L7.60561 11.3656L6.21509 10.4433C5.95258 10.266 5.60497 10.3369 5.42758 10.5994C5.36373 10.6916 5.33535 10.8051 5.33535 10.9116V22.8306H6.47046V11.9687L7.29347 12.5149C7.48502 12.6426 7.73333 12.6426 7.92487 12.5149L9.31545 11.5926L10.706 12.5149C10.8975 12.6426 11.1459 12.6426 11.3374 12.5149L12.7279 11.5926L14.1185 12.5149C14.3101 12.6426 14.5584 12.6426 14.7499 12.5149L16.1405 11.5926L17.531 12.5149C17.7226 12.6426 17.9709 12.6426 18.1624 12.5149L19.553 11.5926L20.9436 12.5149C21.1351 12.6426 21.3834 12.6426 21.575 12.5149L22.3979 11.9687V30.7765H20.1276V31.9117H29.7763C30.0885 31.9117 30.3439 31.6562 30.3439 31.3441V10.9116C30.3439 10.7413 30.2659 10.5852 30.1382 10.4788L31.8196 5.44158C32.3091 3.8382 31.7842 2.07163 30.4716 1.01453ZM15.4523 8.4568C15.502 8.53484 15.5375 8.62001 15.5587 8.71224L15.1685 9.28689L14.3029 7.15846L15.0621 6.03753C14.8634 6.8534 14.9912 7.76151 15.4523 8.4568ZM11.4935 11.0464C11.6425 10.4433 11.5218 9.8119 11.1742 9.30109C10.8408 8.81862 10.3087 8.48515 10.0391 7.9602C9.89723 7.68348 9.84047 7.36421 9.87589 7.05208C9.96106 6.35679 10.4861 5.77502 10.5641 5.07976C10.6209 4.56894 10.4151 4.07232 10.3087 3.5686C10.0604 2.45475 10.7627 1.3267 11.9618 1.26994C12.5435 1.24866 13.0969 1.49697 13.4658 1.94393C13.7921 2.34832 13.9411 2.88042 14.2675 3.29191C14.5087 3.59698 14.8351 3.81692 15.204 3.92333C15.5658 4.02975 15.9915 4.04395 16.2327 4.33482C15.8141 4.6328 15.4736 5.023 15.2395 5.48416L14.4307 4.94496L13.7921 5.86726L12.8131 3.47637L11.7702 3.90205L12.7422 6.30004L11.6354 6.08721L11.4083 7.19394L13.2317 7.60545L14.1185 9.69126L13.0117 9.47843L12.8769 10.1453C12.8699 10.1524 11.7844 10.8335 11.4935 11.0464ZM13.4658 10.7342L14.6364 10.9754L14.7144 11.1669L14.4094 11.3656L13.4658 10.7342ZM20.7875 11.0747L21.2274 10.7768L21.0642 11.2592L20.7875 11.0747ZM23.4905 11.9687L24.3135 12.5149C24.5051 12.6426 24.7534 12.6426 24.9449 12.5149L25.7679 11.9687V27.6975L23.4977 29.9677V11.9687H23.4905ZM29.1662 11.9687V29.9677L26.8959 27.6975V11.9687L27.7189 12.5149C27.9105 12.6426 28.1588 12.6426 28.3503 12.5149L29.1662 11.9687ZM26.3284 28.7404L28.3646 30.7765H24.2922L26.3284 28.7404ZM30.6987 5.07976L28.7689 10.8689L28.0311 11.3585L26.6406 10.4362C26.449 10.3085 26.2006 10.3085 26.0091 10.4362L24.6186 11.3585C24.6186 11.3585 23.1997 10.4149 23.1855 10.4078C23.001 10.3085 22.7739 10.3227 22.6037 10.4362L22.5186 10.493L24.9379 3.24225C25.2358 2.35542 25.9595 1.68853 26.9314 1.39764C27.9388 1.09967 28.996 1.28413 29.7622 1.89427C30.7058 2.66049 31.0818 3.93043 30.6987 5.07976Z" fill="black"/>
<path d="M25.6567 4.68498L29.0635 4.11835L29.2496 5.2376L25.8429 5.80426L25.6567 4.68498Z" fill="black"/>
<path d="M24.5208 8.08857L27.9275 7.52197L28.1136 8.64122L24.7069 9.20782L24.5208 8.08857Z" fill="black"/>
<path d="M17.7082 25.1008C17.0839 25.0938 16.4809 25.3421 16.0409 25.789C16.0339 25.7819 16.0268 25.7749 16.0197 25.7607L15.9274 25.3846C15.9274 25.3776 15.9274 25.3776 15.9204 25.3704C15.7004 24.5971 16.1403 23.6181 16.5234 23.2349C16.6937 23.0647 16.7362 22.7951 16.6299 22.5823L16.0623 21.4471C15.9204 21.1633 15.5798 21.0498 15.3031 21.1917C13.7139 21.9792 12.7136 23.6039 12.7207 25.3704V25.6755C12.5859 25.5762 12.4369 25.4839 12.2879 25.3988C11.1882 24.81 9.76225 25.1789 9.10951 26.2147C8.73349 26.8178 8.63418 27.6336 8.847 28.3502L9.58484 30.812C8.60577 32.7773 6.22197 33.5789 4.25678 32.607C2.31285 31.6421 1.50406 29.2938 2.44055 27.3357C2.45474 27.3073 2.46893 27.2789 2.48312 27.2505L2.50441 29.1803L3.63955 29.1661L3.60407 26.8036L5.86729 26.91L5.92404 25.7749L3.95171 25.6826C4.54057 25.3208 5.22165 25.1221 5.90984 25.1008C6.73278 25.0796 7.54159 25.3137 8.22267 25.7749L8.85407 24.8313C7.57707 23.9728 5.9808 23.7387 4.51219 24.1857L4.7534 23.6181L3.71049 23.1711L2.93009 24.9873C2.87333 25.0299 2.80947 25.0796 2.75272 25.1293L1.02163 23.3981L0.219932 24.1998L1.96522 25.9451C1.92974 25.9948 1.89427 26.0444 1.85879 26.0941L0 26.8887L0.44696 27.9316L1.09967 27.6478C0.312164 30.358 1.87298 33.1888 4.58313 33.9762C6.37097 34.4942 8.30071 33.9975 9.62032 32.678C9.75511 32.5431 9.88283 32.3942 10.0034 32.2452L10.1169 32.6141C10.4646 33.7776 11.6849 34.4303 12.8484 34.0827C13.0115 34.033 13.1605 33.9692 13.3095 33.884C13.9977 34.2671 14.8349 34.2671 15.5231 33.884C16.5731 34.487 17.9139 34.1182 18.517 33.0681C18.6021 32.9263 18.666 32.7701 18.7157 32.607L19.9927 28.3431C20.0707 28.0593 20.1062 27.7614 20.092 27.4634C20.0849 26.165 19.0207 25.1008 17.7082 25.1008ZM15.3102 22.4971L15.438 22.7525C14.991 23.3698 14.6717 24.2708 14.7285 25.1221C14.5653 25.0938 14.1183 25.0725 13.8488 25.1718C13.9055 24.1005 14.4447 23.1214 15.3102 22.4971ZM11.2025 32.2948L9.92538 28.0309C9.8048 27.6266 9.86156 27.1441 10.0602 26.8248C10.3866 26.2998 11.174 26.1012 11.7416 26.4063C12.0112 26.5482 12.1176 26.6475 12.2241 26.7823C12.1744 26.9738 12.146 27.1725 12.146 27.3711V31.9117C12.146 32.3019 12.2454 32.685 12.4369 33.0256C11.8906 33.1391 11.3585 32.8198 11.2025 32.2948ZM13.2741 31.9117V27.3711C13.2741 26.7468 13.7849 26.236 14.4092 26.236C15.0335 26.236 15.5443 26.7468 15.5443 27.3711V31.9117C15.5443 32.536 15.0335 33.0468 14.4092 33.0468C13.7849 33.0468 13.2741 32.536 13.2741 31.9117ZM18.9001 28.0309L17.6231 32.2948C17.467 32.8198 16.9278 33.1391 16.3886 33.0256C16.5802 32.685 16.6795 32.3019 16.6795 31.9117V27.3711C16.6795 27.1938 16.6582 27.0235 16.6156 26.8532C16.7646 26.6262 17.1052 26.236 17.7011 26.236C18.3893 26.236 18.9427 26.7965 18.9427 27.4776C18.9569 27.662 18.9427 27.8536 18.9001 28.0309Z" fill="black"/>
</svg>
