<svg width="159" height="56" viewBox="0 0 159 56" fill="none" xmlns="http://www.w3.org/2000/svg">
<path d="M19.075 29.6187C18.1453 29.9797 17.0953 29.5859 16.636 28.7L8.1047 12.2718C7.10939 10.325 7.86408 7.95153 9.81095 6.95621C9.93127 6.90153 10.0406 6.84684 10.161 6.79215C12.3594 5.90621 14.7766 7.19684 15.3891 9.42809L15.4 9.4609L20.2453 27.3C20.4969 28.2515 19.9938 29.2578 19.075 29.6187Z" fill="#F98500"/>
<path d="M18.6156 21.3391L16.1984 22.2906C15.75 22.4547 15.2469 22.2359 15.0609 21.7875C14.8859 21.3391 15.1047 20.825 15.5531 20.65L18.1453 19.6328L18.6156 21.3391Z" fill="#FA6D00"/>
<path d="M19.5562 24.7625L17.4781 25.5391C17.0297 25.6922 16.5375 25.4844 16.3406 25.036C16.1656 24.5875 16.3844 24.0735 16.8437 23.8985L19.0969 23.0563L19.5562 24.7625Z" fill="#FA6D00"/>
<path d="M29.3672 13.5515C28.6344 13.0484 28.2625 12.1624 28.4266 11.2765C28.8313 9.24212 27.5188 7.26243 25.4735 6.8468C25.4516 6.8468 25.4188 6.83587 25.3969 6.83587C24.5547 6.69368 23.8547 6.09212 23.5922 5.2718C23.5266 5.07493 23.45 4.87805 23.3625 4.69212C22.4328 2.83274 20.1797 2.07805 18.3203 3.00774C16.5594 3.88274 15.7719 5.9718 16.5156 7.78743C16.8985 8.72805 17.0844 9.58118 16.4391 10.489C15.236 12.1843 15.6406 14.5359 17.336 15.7281C17.3469 15.739 17.3688 15.7499 17.3797 15.7609C18.1125 16.2749 18.4625 17.1718 18.2875 18.0468C17.8938 20.0812 19.2281 22.0609 21.2735 22.4546C23.111 22.8046 24.9156 21.7656 25.5391 20.0046C27.3985 20.9343 29.6516 20.1687 30.5813 18.3202C31.4125 16.6468 30.8985 14.6234 29.3672 13.5515Z" fill="#598C44"/>
<path d="M37.8985 16.5593C37.4063 15.8155 37.3953 14.853 37.8766 14.0984C39.025 12.3702 38.5438 10.0296 36.8157 8.88117C36.7938 8.87023 36.7719 8.84836 36.75 8.83742C35.6782 8.15929 35.7547 7.19679 35.6672 6.09211C35.5141 4.02492 33.6985 2.47179 31.6313 2.62492C29.6735 2.77804 28.1532 4.40773 28.1532 6.37648C28.1532 7.39367 28 8.24679 27.0703 8.84836C25.3203 9.96398 24.8063 12.2937 25.9328 14.0437C25.9438 14.0546 25.9547 14.0765 25.9657 14.0874C26.4469 14.8421 26.4469 15.8046 25.9438 16.5484C24.8172 18.2874 25.3094 20.6171 27.0485 21.7546C28.6125 22.7718 30.6907 22.4874 31.9157 21.0874C33.2938 22.6405 35.6672 22.7937 37.2203 21.4265C38.6203 20.2015 38.9047 18.1234 37.8985 16.5593Z" fill="#5F9548"/>
<path d="M43.75 27.125L33.25 23.625L39.0359 6.27813C39.7359 4.18907 41.8687 2.57032 44.0891 2.625C45.4672 2.65782 46.7578 2.92032 47.8406 3.79532C49.5906 5.19532 50.2797 7.53594 49.5687 9.65782L43.75 27.125Z" fill="#FFB531"/>
<path d="M36.75 18.375V49.875H10.5V18.375L13.125 20.125L15.75 18.375L18.375 20.125L21 18.375L23.625 20.125L26.25 18.375L28.875 20.125L31.5 18.375L34.125 20.125L36.75 18.375Z" fill="#FFB531"/>
<path d="M36.75 25.6266V49.875H10.5V44.5703C20.1359 41.3328 29.6844 35.4375 36.75 25.6266Z" fill="#FCAC1F"/>
<path d="M47.25 18.375V49.875H36.75V18.375L39.375 20.125L42 18.375L44.625 20.125L47.25 18.375Z" fill="#F98500"/>
<path d="M10.6641 53.375C14.5301 53.375 17.6641 50.241 17.6641 46.375C17.6641 42.509 14.5301 39.375 10.6641 39.375C6.79807 39.375 3.66406 42.509 3.66406 46.375C3.66406 50.241 6.79807 53.375 10.6641 53.375Z" fill="#F35244"/>
<path d="M25.375 35L26.25 36.75C25.1672 37.8328 24.7297 39.4078 25.1016 40.9062L25.375 42H21.875V40.6656C21.875 38.2703 23.2312 36.0719 25.375 35Z" fill="#5F9548"/>
<path d="M20.2453 53.375C19.1406 53.375 18.1563 52.6531 17.8391 51.5922L15.8703 45.0188C15.3235 43.1922 16.5266 41.125 18.55 41.125C19.5344 41.125 20.4422 41.6391 20.9453 42.4812L22.75 45.5V50.8703C22.75 52.2484 21.6235 53.375 20.2453 53.375Z" fill="#FA9F0C"/>
<path d="M27.0047 53.375C28.1094 53.375 29.0937 52.6531 29.4109 51.5922L31.3797 45.0188C31.9375 43.1703 30.7125 41.125 28.7 41.125C27.7156 41.125 26.8078 41.6391 26.3047 42.4812L24.5 45.5V50.8703C24.5 52.2484 25.6266 53.375 27.0047 53.375Z" fill="#FA9F0C"/>
<path d="M23.625 41.125C25.0797 41.125 26.25 42.2953 26.25 43.75V50.75C26.25 52.2047 25.0797 53.375 23.625 53.375C22.1703 53.375 21 52.2047 21 50.75V43.75C21 42.2953 22.1703 41.125 23.625 41.125Z" fill="#FFB531"/>
<path d="M48.3875 3.11716C46.7688 1.8156 44.5485 1.42185 42.4375 2.03435C40.3813 2.63591 38.8391 4.0906 38.2047 6.00466L34.6719 16.614L34.2563 16.0015L32.7906 16.975V13.4422L35.2188 11.8234L34.2453 10.3687L32.7797 11.3422V7.3281H31.0297V11.3312L29.575 10.3578L28.6016 11.8125L31.0297 13.4312V16.964L29.575 15.9906L28.6016 17.4453L29.9469 18.3422L28.8641 19.064L26.7203 17.6422C26.6219 17.5765 26.5234 17.5328 26.4141 17.5109C26.4797 17.3469 26.5672 17.1828 26.6656 17.0297C27.3438 15.9906 27.3438 14.6562 26.6766 13.6062C26.0641 12.6765 26.0859 11.2875 26.7203 10.3578C26.9938 9.96404 28.1094 9.1656 28.4047 8.77185C28.9844 8.00623 29.05 7.13123 29.1156 6.3656C29.1594 5.76404 29.2031 5.23904 29.4656 4.83435C30.3078 3.48904 32.0906 3.08435 33.436 3.92654C33.7203 4.10154 33.9609 4.33123 34.1688 4.58279C34.6391 5.17341 34.6828 5.76404 34.7375 6.56248C34.7594 6.83591 34.7813 7.13123 34.8141 7.43748L36.5531 7.21873C36.5203 6.95622 36.4985 6.69373 36.4875 6.44216C36.4219 5.4906 36.3453 4.51716 35.5469 3.49998C33.961 1.48748 31.0516 1.14841 29.0391 2.72341C28.6234 3.05154 28.2625 3.44529 27.9781 3.89373C27.4969 4.65935 27.4313 5.4906 27.3656 6.21248C27.3547 6.37654 27.3438 6.52966 27.3219 6.68279C26.7859 6.32185 26.1734 6.07029 25.5281 5.94998C25.0031 5.86248 24.5656 5.4906 24.4016 4.98748C24.0188 3.79529 23.1875 2.81091 22.0719 2.24216C20.9781 1.66248 19.6984 1.5531 18.5172 1.93591C16.7781 2.5156 15.5094 4.14529 15.3563 6.0156C15.3016 6.72654 15.4766 7.34998 15.6516 7.90779C14.8313 6.56248 13.3984 5.70935 11.8234 5.61091L11.8563 1.7281L10.1063 1.71716L10.0844 4.24373L9.03438 1.5531L7.43751 2.22029L8.48751 4.91091L6.75938 3.07341L5.49063 4.2656L8.14844 7.10935C6.70469 8.59685 6.36563 10.8281 7.32813 12.6656L9.14376 16.1656L10.6969 15.3562L8.88126 11.8562C8.10469 10.3578 8.68438 8.50935 10.1828 7.73279C11.6813 6.95622 13.5297 7.53591 14.3063 9.03435C14.4047 9.23123 14.4813 9.4281 14.5469 9.64685L14.5797 9.75622L11.7578 10.8609L12.3922 12.4906L15.0391 11.4625V11.4734C14.875 12.0969 14.8313 12.7422 14.9406 13.3875L13.0375 14.1312L13.6719 15.7609L15.5531 15.0281C15.9906 15.7609 16.7453 16.439 16.7453 16.439L14.3063 17.3906L14.5906 18.1015L13.1359 19.075L10.9922 17.6531C10.5875 17.3797 10.0516 17.489 9.77813 17.8937C9.67969 18.0359 9.63594 18.2109 9.63594 18.375V36.75H11.3859V20.0047L12.6547 20.8468C12.95 21.0437 13.3328 21.0437 13.6281 20.8468L15.7719 19.425L17.9156 20.8468C18.2109 21.0437 18.5938 21.0437 18.8891 20.8468L21.0328 19.425L23.1766 20.8468C23.4719 21.0437 23.8547 21.0437 24.15 20.8468L26.2938 19.425L28.4375 20.8468C28.7328 21.0437 29.1156 21.0437 29.4109 20.8468L31.5547 19.425L33.6985 20.8468C33.9938 21.0437 34.3766 21.0437 34.6719 20.8468L35.9406 20.0047V49H32.4406V50.75H47.3156C47.7969 50.75 48.1906 50.3562 48.1906 49.875V18.375C48.1906 18.1125 48.0703 17.8718 47.8735 17.7078L50.4656 9.94216C51.2203 7.47029 50.411 4.74685 48.3875 3.11716ZM25.2328 14.5906C25.3094 14.7109 25.3641 14.8422 25.3969 14.9844L24.7953 15.8703L23.4609 12.589L24.6313 10.8609C24.325 12.1187 24.5219 13.5187 25.2328 14.5906ZM19.1297 18.5828C19.3594 17.6531 19.1734 16.6797 18.6375 15.8922C18.1234 15.1484 17.3031 14.6343 16.8875 13.825C16.6688 13.3984 16.5813 12.9062 16.6359 12.425C16.7672 11.3531 17.5766 10.4562 17.6969 9.38435C17.7844 8.59685 17.4672 7.83122 17.3031 7.05466C16.9203 5.33748 18.0031 3.59841 19.8516 3.51091C20.7484 3.4781 21.6016 3.86091 22.1703 4.54998C22.6734 5.17341 22.9031 5.99372 23.4063 6.6281C23.7781 7.09841 24.2813 7.43748 24.85 7.60154C25.4078 7.7656 26.0641 7.78748 26.4359 8.23591C25.7906 8.69529 25.2656 9.29685 24.9047 10.0078L23.6578 9.17654L22.6734 10.5984L21.1641 6.91248L19.5563 7.56872L21.0547 11.2656L19.3484 10.9375L18.9984 12.6437L21.8094 13.2781L23.1766 16.4937L21.4703 16.1656L21.2625 17.1937C21.2516 17.2047 19.5781 18.2547 19.1297 18.5828ZM22.1703 18.1015L23.975 18.4734L24.0953 18.7687L23.625 19.075L22.1703 18.1015ZM33.4578 18.6265L34.136 18.1672L33.8844 18.9109L33.4578 18.6265ZM37.625 20.0047L38.8938 20.8468C39.1891 21.0437 39.5719 21.0437 39.8672 20.8468L41.136 20.0047V44.2531L37.636 47.7531V20.0047H37.625ZM46.375 20.0047V47.7531L42.875 44.2531V20.0047L44.1438 20.8468C44.4391 21.0437 44.8219 21.0437 45.1172 20.8468L46.375 20.0047ZM42 45.8609L45.1391 49H38.861L42 45.8609ZM48.7375 9.38435L45.7625 18.3093L44.625 19.064L42.4813 17.6422C42.186 17.4453 41.8031 17.4453 41.5078 17.6422L39.3641 19.064C39.3641 19.064 37.1766 17.6093 37.1547 17.5984C36.8703 17.4453 36.5203 17.4672 36.2578 17.6422L36.1266 17.7297L39.8563 6.55154C40.3156 5.18435 41.4313 4.15623 42.9297 3.70779C44.4828 3.24841 46.1125 3.53279 47.2938 4.47341C48.7485 5.65466 49.3281 7.61248 48.7375 9.38435Z" fill="black"/>
<path d="M40.9649 8.77576L46.2169 7.9022L46.5039 9.6277L41.2519 10.5013L40.9649 8.77576Z" fill="black"/>
<path d="M39.2134 14.0229L44.4654 13.1494L44.7524 14.8749L39.5004 15.7484L39.2134 14.0229Z" fill="black"/>
<path d="M28.711 40.25C27.7485 40.2391 26.8188 40.6219 26.1406 41.3109C26.1297 41.3 26.1188 41.2891 26.1078 41.2672L25.9656 40.6875C25.9656 40.6766 25.9656 40.6766 25.9547 40.6656C25.6156 39.4734 26.2938 37.9641 26.8844 37.3734C27.1469 37.1109 27.2125 36.6953 27.0485 36.3672L26.1735 34.6172C25.9547 34.1797 25.4297 34.0047 25.0031 34.2234C22.5531 35.4375 21.011 37.9422 21.0219 40.6656V41.1359C20.8141 40.9828 20.5844 40.8406 20.3547 40.7094C18.6594 39.8016 16.461 40.3703 15.4547 41.9672C14.875 42.8969 14.7219 44.1547 15.05 45.2594L16.1875 49.0547C14.6781 52.0844 11.0031 53.3203 7.97345 51.8219C4.97657 50.3344 3.7297 46.7141 5.17345 43.6953C5.19532 43.6516 5.2172 43.6078 5.23907 43.5641L5.27189 46.5391L7.02189 46.5172L6.9672 42.875L10.4563 43.0391L10.5438 41.2891L7.50314 41.1469C8.41095 40.5891 9.46095 40.2828 10.5219 40.25C11.7906 40.2172 13.0375 40.5781 14.0875 41.2891L15.0609 39.8344C13.0922 38.5109 10.6313 38.15 8.3672 38.8391L8.73907 37.9641L7.13126 37.275L5.92814 40.075C5.84064 40.1406 5.7422 40.2172 5.6547 40.2938L2.98595 37.625L1.75001 38.8609L4.44064 41.5516C4.38595 41.6281 4.33126 41.7047 4.27657 41.7813L1.41095 43.0063L2.10001 44.6141L3.10626 44.1766C1.8922 48.3547 4.29845 52.7188 8.47657 53.9328C11.2328 54.7313 14.2078 53.9656 16.2422 51.9313C16.45 51.7234 16.6469 51.4938 16.8328 51.2641L17.0078 51.8328C17.5438 53.6266 19.425 54.6328 21.2188 54.0969C21.4703 54.0203 21.7 53.9219 21.9297 53.7906C22.9906 54.3813 24.2813 54.3813 25.3422 53.7906C26.961 54.7203 29.0281 54.1516 29.9578 52.5328C30.0891 52.3141 30.1875 52.0734 30.2641 51.8219L32.2328 45.2484C32.3531 44.8109 32.4078 44.3516 32.386 43.8922C32.375 41.8906 30.7344 40.25 28.711 40.25ZM25.0141 36.2359L25.211 36.6297C24.5219 37.5813 24.0297 38.9703 24.1172 40.2828C23.8656 40.2391 23.1766 40.2063 22.761 40.3594C22.8485 38.7078 23.6797 37.1984 25.0141 36.2359ZM18.6813 51.3406L16.7125 44.7672C16.5266 44.1438 16.6141 43.4 16.9203 42.9078C17.4235 42.0984 18.6375 41.7922 19.5125 42.2625C19.9281 42.4813 20.0922 42.6344 20.2563 42.8422C20.1797 43.1375 20.136 43.4438 20.136 43.75V50.75C20.136 51.3516 20.2891 51.9422 20.5844 52.4672C19.7422 52.6422 18.9219 52.15 18.6813 51.3406ZM21.875 50.75V43.75C21.875 42.7875 22.6625 42 23.625 42C24.5875 42 25.375 42.7875 25.375 43.75V50.75C25.375 51.7125 24.5875 52.5 23.625 52.5C22.6625 52.5 21.875 51.7125 21.875 50.75ZM30.5484 44.7672L28.5797 51.3406C28.3391 52.15 27.5078 52.6422 26.6766 52.4672C26.9719 51.9422 27.125 51.3516 27.125 50.75V43.75C27.125 43.4766 27.0922 43.2141 27.0266 42.9516C27.2563 42.6016 27.7813 42 28.7 42C29.761 42 30.6141 42.8641 30.6141 43.9141C30.636 44.1984 30.6141 44.4938 30.5484 44.7672Z" fill="black"/>
<path d="M80.308 11.36C79.804 11.36 79.244 11.3227 78.628 11.248C78.0307 11.1547 77.284 11.0147 76.388 10.828L75.212 16.4H79.3L78.852 18.472H74.764L72.496 29H68.464L72.496 10.296C71.208 10.352 70.2747 10.8467 69.696 11.78C69.136 12.7133 68.856 14.1507 68.856 16.092C68.856 16.4467 68.8747 16.7547 68.912 17.016C68.968 17.2773 69.052 17.5293 69.164 17.772C69.2013 17.8467 69.22 17.9027 69.22 17.94C69.2387 17.9587 69.248 17.9773 69.248 17.996C68.2027 17.996 67.4373 17.7813 66.952 17.352C66.4853 16.904 66.252 16.2133 66.252 15.28C66.252 13.0587 67.0827 11.2947 68.744 9.988C70.424 8.66267 72.776 8 75.8 8C75.968 8 76.1733 8.00933 76.416 8.028C76.6587 8.04667 77.06 8.084 77.62 8.14C78.3667 8.21467 78.936 8.27067 79.328 8.308C79.7387 8.32667 80.112 8.336 80.448 8.336C80.952 8.336 81.4093 8.308 81.82 8.252C82.2307 8.196 82.6133 8.112 82.968 8C82.9493 8.03733 82.8653 8.32667 82.716 8.868C82.5667 9.40933 82.3893 9.83867 82.184 10.156C81.9787 10.4733 81.7173 10.7347 81.4 10.94C81.1013 11.1267 80.7373 11.2667 80.308 11.36ZM87.9516 16.288V16.484L88.2596 15H92.2916L90.2756 24.52C90.2382 24.688 90.2102 24.8467 90.1916 24.996C90.1729 25.1267 90.1636 25.2667 90.1636 25.416C90.1636 25.8267 90.2569 26.1347 90.4436 26.34C90.6302 26.5267 90.9196 26.62 91.3116 26.62C91.7969 26.62 92.2356 26.396 92.6276 25.948C93.0196 25.4813 93.3369 24.828 93.5796 23.988H94.7556C94.1582 25.7053 93.3836 27.0027 92.4316 27.88C91.4796 28.7387 90.3782 29.168 89.1276 29.168C88.3249 29.168 87.6809 28.944 87.1956 28.496C86.7289 28.048 86.4582 27.4133 86.3836 26.592C85.8049 27.4507 85.1609 28.0947 84.4516 28.524C83.7609 28.9533 83.0142 29.168 82.2116 29.168C81.0542 29.168 80.1396 28.776 79.4676 27.992C78.8142 27.208 78.4876 26.0973 78.4876 24.66C78.4876 23.6147 78.6462 22.5227 78.9636 21.384C79.2809 20.2453 79.7196 19.2093 80.2796 18.276C80.9702 17.1747 81.7729 16.3347 82.6876 15.756C83.6022 15.1587 84.6009 14.86 85.6836 14.86C86.4116 14.86 86.9716 14.9907 87.3636 15.252C87.7556 15.4947 87.9516 15.84 87.9516 16.288ZM87.6996 17.66C87.6996 17.38 87.5969 17.1373 87.3916 16.932C87.1862 16.708 86.9062 16.596 86.5516 16.596C85.5249 16.596 84.6102 17.4547 83.8076 19.172C83.0236 20.8893 82.6316 22.588 82.6316 24.268C82.6316 24.996 82.7342 25.5467 82.9396 25.92C83.1449 26.2747 83.5089 26.452 84.0316 26.452C84.5169 26.452 84.9836 26.2187 85.4316 25.752C85.8982 25.2853 86.2062 24.6973 86.3556 23.988L87.6996 17.66ZM96.4758 29H92.4438L95.4118 15H99.4438L99.0798 16.736C99.9011 16.0453 100.545 15.588 101.012 15.364C101.497 15.1213 101.982 15 102.468 15C103.046 15 103.513 15.2053 103.868 15.616C104.222 16.008 104.4 16.5027 104.4 17.1C104.4 17.6787 104.213 18.164 103.84 18.556C103.466 18.948 102.981 19.144 102.384 19.144C102.066 19.144 101.814 19.0693 101.628 18.92C101.46 18.7707 101.338 18.4627 101.264 17.996C101.208 17.6973 101.142 17.5107 101.068 17.436C100.993 17.3427 100.89 17.296 100.76 17.296C100.442 17.296 100.144 17.3613 99.8638 17.492C99.5838 17.6227 99.2011 17.912 98.7158 18.36L96.4758 29ZM117.755 26.004C117.755 25.668 117.792 25.248 117.867 24.744C117.96 24.24 118.138 23.4373 118.399 22.336C118.66 21.272 118.828 20.5067 118.903 20.04C118.978 19.5733 119.015 19.1813 119.015 18.864C119.015 18.3973 118.931 18.0427 118.763 17.8C118.595 17.5573 118.343 17.436 118.007 17.436C117.559 17.436 117.139 17.6693 116.747 18.136C116.374 18.584 116.066 19.2093 115.823 20.012L113.919 29H109.887L111.931 19.34C111.968 19.228 111.987 19.116 111.987 19.004C112.006 18.892 112.015 18.7707 112.015 18.64C112.015 18.2667 111.94 17.968 111.791 17.744C111.642 17.52 111.436 17.408 111.175 17.408C110.69 17.408 110.251 17.6413 109.859 18.108C109.467 18.556 109.15 19.1907 108.907 20.012L107.003 29H102.971L105.939 15H109.971L109.663 16.456C110.13 15.9147 110.643 15.5133 111.203 15.252C111.763 14.9907 112.388 14.86 113.079 14.86C113.9 14.86 114.544 15.0653 115.011 15.476C115.496 15.868 115.814 16.4653 115.963 17.268C116.486 16.4653 117.064 15.868 117.699 15.476C118.334 15.084 119.052 14.888 119.855 14.888C120.844 14.888 121.61 15.1587 122.151 15.7C122.692 16.2413 122.963 17.0253 122.963 18.052C122.963 18.4813 122.907 18.9947 122.795 19.592C122.702 20.1707 122.506 21.0667 122.207 22.28C121.964 23.232 121.806 23.904 121.731 24.296C121.656 24.688 121.619 25.0147 121.619 25.276C121.619 25.668 121.712 25.9667 121.899 26.172C122.086 26.3587 122.366 26.452 122.739 26.452C123.206 26.452 123.607 26.2933 123.943 25.976C124.279 25.6587 124.662 24.996 125.091 23.988H126.267C125.67 25.724 124.942 27.0213 124.083 27.88C123.243 28.7387 122.235 29.168 121.059 29.168C120.014 29.168 119.202 28.888 118.623 28.328C118.044 27.7493 117.755 26.9747 117.755 26.004ZM134.245 16.288V16.484L134.553 15H138.585L136.569 24.52C136.531 24.688 136.503 24.8467 136.485 24.996C136.466 25.1267 136.457 25.2667 136.457 25.416C136.457 25.8267 136.55 26.1347 136.737 26.34C136.923 26.5267 137.213 26.62 137.605 26.62C138.09 26.62 138.529 26.396 138.921 25.948C139.313 25.4813 139.63 24.828 139.873 23.988H141.049C140.451 25.7053 139.677 27.0027 138.725 27.88C137.773 28.7387 136.671 29.168 135.421 29.168C134.618 29.168 133.974 28.944 133.489 28.496C133.022 28.048 132.751 27.4133 132.677 26.592C132.098 27.4507 131.454 28.0947 130.745 28.524C130.054 28.9533 129.307 29.168 128.505 29.168C127.347 29.168 126.433 28.776 125.761 27.992C125.107 27.208 124.781 26.0973 124.781 24.66C124.781 23.6147 124.939 22.5227 125.257 21.384C125.574 20.2453 126.013 19.2093 126.573 18.276C127.263 17.1747 128.066 16.3347 128.981 15.756C129.895 15.1587 130.894 14.86 131.977 14.86C132.705 14.86 133.265 14.9907 133.657 15.252C134.049 15.4947 134.245 15.84 134.245 16.288ZM133.993 17.66C133.993 17.38 133.89 17.1373 133.685 16.932C133.479 16.708 133.199 16.596 132.845 16.596C131.818 16.596 130.903 17.4547 130.101 19.172C129.317 20.8893 128.925 22.588 128.925 24.268C128.925 24.996 129.027 25.5467 129.233 25.92C129.438 26.2747 129.802 26.452 130.325 26.452C130.81 26.452 131.277 26.2187 131.725 25.752C132.191 25.2853 132.499 24.6973 132.649 23.988L133.993 17.66ZM142.769 29H138.737L141.705 15H145.737L145.373 16.736C146.194 16.0453 146.838 15.588 147.305 15.364C147.79 15.1213 148.275 15 148.761 15C149.339 15 149.806 15.2053 150.161 15.616C150.515 16.008 150.693 16.5027 150.693 17.1C150.693 17.6787 150.506 18.164 150.133 18.556C149.759 18.948 149.274 19.144 148.677 19.144C148.359 19.144 148.107 19.0693 147.921 18.92C147.753 18.7707 147.631 18.4627 147.557 17.996C147.501 17.6973 147.435 17.5107 147.361 17.436C147.286 17.3427 147.183 17.296 147.053 17.296C146.735 17.296 146.437 17.3613 146.157 17.492C145.877 17.6227 145.494 17.912 145.009 18.36L142.769 29ZM151.308 15H152.232L153.072 11.136L157.216 10.576L156.264 15H157.944L157.72 16.12H156.04L154.248 24.52C154.211 24.688 154.183 24.8467 154.164 24.996C154.145 25.1267 154.136 25.2667 154.136 25.416C154.136 25.7893 154.22 26.06 154.388 26.228C154.575 26.3773 154.873 26.452 155.284 26.452C155.807 26.452 156.301 26.228 156.768 25.78C157.235 25.3133 157.58 24.716 157.804 23.988H158.98C158.383 25.6867 157.58 26.9747 156.572 27.852C155.564 28.7293 154.407 29.168 153.1 29.168C152.167 29.168 151.429 28.8787 150.888 28.3C150.365 27.7027 150.104 26.872 150.104 25.808C150.104 25.5653 150.123 25.2947 150.16 24.996C150.197 24.6787 150.253 24.3427 150.328 23.988L152.008 16.12H151.084L151.308 15Z" fill="#3BB77E"/>
<path d="M74.0092 45.0348C73.9131 44.7332 73.7839 44.4631 73.6214 44.2244C73.4624 43.9825 73.2718 43.777 73.0497 43.608C72.8277 43.4356 72.5741 43.3047 72.2891 43.2152C72.0073 43.1257 71.6974 43.081 71.3594 43.081C70.786 43.081 70.2689 43.2285 69.8082 43.5234C69.3475 43.8184 68.983 44.2509 68.7145 44.821C68.4493 45.3878 68.3168 46.0821 68.3168 46.9041C68.3168 47.7294 68.451 48.4271 68.7195 48.9972C68.9879 49.5672 69.3558 49.9998 69.8232 50.2947C70.2905 50.5897 70.8224 50.7372 71.419 50.7372C71.9725 50.7372 72.4548 50.6245 72.8658 50.3991C73.2801 50.1738 73.5999 49.8556 73.8253 49.4446C74.054 49.0303 74.1683 48.5431 74.1683 47.983L74.5661 48.0575H71.6527V46.7898H75.6548V47.9482C75.6548 48.8033 75.4725 49.5457 75.108 50.1754C74.7467 50.8018 74.2462 51.2857 73.6065 51.6271C72.9702 51.9685 72.241 52.1392 71.419 52.1392C70.4976 52.1392 69.6889 51.9271 68.9929 51.5028C68.3002 51.0786 67.7599 50.477 67.3722 49.6982C66.9844 48.916 66.7905 47.9879 66.7905 46.9141C66.7905 46.102 66.9032 45.3729 67.1286 44.7266C67.3539 44.0803 67.6705 43.5317 68.0781 43.081C68.4891 42.6269 68.9714 42.2805 69.5249 42.0419C70.0817 41.8 70.6899 41.679 71.3494 41.679C71.8996 41.679 72.4117 41.7602 72.8857 41.9226C73.3629 42.085 73.7872 42.3153 74.1584 42.6136C74.5329 42.9119 74.8428 43.2666 75.0881 43.6776C75.3333 44.0852 75.4991 44.5376 75.5852 45.0348H74.0092ZM77.6049 52V41.8182H81.2342C82.023 41.8182 82.6776 41.9541 83.198 42.2259C83.7217 42.4976 84.1127 42.8738 84.3713 43.3544C84.6298 43.8317 84.7591 44.3835 84.7591 45.0099C84.7591 45.633 84.6281 46.1816 84.3663 46.6555C84.1078 47.1262 83.7167 47.4924 83.193 47.7543C82.6726 48.0161 82.0181 48.147 81.2292 48.147H78.4799V46.8246H81.09C81.5872 46.8246 81.9915 46.7533 82.3031 46.6108C82.618 46.4683 82.8483 46.2611 82.9941 45.9893C83.14 45.7176 83.2129 45.3911 83.2129 45.0099C83.2129 44.6255 83.1383 44.2924 82.9892 44.0107C82.8433 43.7289 82.613 43.5135 82.2981 43.3643C81.9866 43.2119 81.5772 43.1357 81.0701 43.1357H79.1412V52H77.6049ZM82.6312 47.4062L85.1468 52H83.3968L80.9309 47.4062H82.6312ZM95.4728 46.9091C95.4728 47.9962 95.274 48.9309 94.8762 49.7131C94.4785 50.492 93.9333 51.0919 93.2406 51.5128C92.5512 51.9304 91.7673 52.1392 90.889 52.1392C90.0074 52.1392 89.2202 51.9304 88.5275 51.5128C87.8381 51.0919 87.2946 50.4903 86.8968 49.7081C86.4991 48.9259 86.3002 47.9929 86.3002 46.9091C86.3002 45.822 86.4991 44.889 86.8968 44.1101C87.2946 43.3279 87.8381 42.728 88.5275 42.3104C89.2202 41.8894 90.0074 41.679 90.889 41.679C91.7673 41.679 92.5512 41.8894 93.2406 42.3104C93.9333 42.728 94.4785 43.3279 94.8762 44.1101C95.274 44.889 95.4728 45.822 95.4728 46.9091ZM93.9515 46.9091C93.9515 46.0805 93.8173 45.3828 93.5488 44.8161C93.2837 44.246 92.9191 43.8151 92.4551 43.5234C91.9944 43.2285 91.4724 43.081 90.889 43.081C90.3024 43.081 89.7787 43.2285 89.318 43.5234C88.8573 43.8151 88.4927 44.246 88.2243 44.8161C87.9591 45.3828 87.8265 46.0805 87.8265 46.9091C87.8265 47.7377 87.9591 48.437 88.2243 49.0071C88.4927 49.5739 88.8573 50.0047 89.318 50.2997C89.7787 50.5914 90.3024 50.7372 90.889 50.7372C91.4724 50.7372 91.9944 50.5914 92.4551 50.2997C92.9191 50.0047 93.2837 49.5739 93.5488 49.0071C93.8173 48.437 93.9515 47.7377 93.9515 46.9091ZM105.845 45.1293H104.294C104.234 44.7978 104.123 44.5062 103.961 44.2543C103.798 44.0024 103.599 43.7886 103.364 43.6129C103.129 43.4373 102.865 43.3047 102.574 43.2152C102.285 43.1257 101.979 43.081 101.654 43.081C101.067 43.081 100.542 43.2285 100.078 43.5234C99.6171 43.8184 99.2525 44.2509 98.984 44.821C98.7189 45.3911 98.5863 46.0871 98.5863 46.9091C98.5863 47.7377 98.7189 48.437 98.984 49.0071C99.2525 49.5772 99.6187 50.008 100.083 50.2997C100.547 50.5914 101.069 50.7372 101.649 50.7372C101.97 50.7372 102.275 50.6941 102.564 50.608C102.855 50.5185 103.119 50.3875 103.354 50.2152C103.589 50.0429 103.788 49.8324 103.951 49.5838C104.116 49.3319 104.231 49.0436 104.294 48.7188L105.845 48.7237C105.762 49.2242 105.601 49.6849 105.363 50.1058C105.127 50.5234 104.824 50.8847 104.453 51.1896C104.085 51.4912 103.664 51.7249 103.19 51.8906C102.716 52.0563 102.199 52.1392 101.639 52.1392C100.757 52.1392 99.9717 51.9304 99.2823 51.5128C98.5929 51.0919 98.0494 50.4903 97.6516 49.7081C97.2572 48.9259 97.06 47.9929 97.06 46.9091C97.06 45.822 97.2589 44.889 97.6566 44.1101C98.0543 43.3279 98.5979 42.728 99.2873 42.3104C99.9767 41.8894 100.761 41.679 101.639 41.679C102.179 41.679 102.683 41.7569 103.15 41.9126C103.621 42.0651 104.043 42.2905 104.418 42.5888C104.792 42.8838 105.102 43.245 105.348 43.6726C105.593 44.0968 105.759 44.5824 105.845 45.1293ZM107.683 52V41.8182H114.067V43.1406H109.219V46.2429H113.733V47.5604H109.219V50.6776H114.126V52H107.683ZM116.119 52V41.8182H119.748C120.537 41.8182 121.191 41.9541 121.712 42.2259C122.235 42.4976 122.626 42.8738 122.885 43.3544C123.143 43.8317 123.273 44.3835 123.273 45.0099C123.273 45.633 123.142 46.1816 122.88 46.6555C122.621 47.1262 122.23 47.4924 121.707 47.7543C121.186 48.0161 120.532 48.147 119.743 48.147H116.994V46.8246H119.604C120.101 46.8246 120.505 46.7533 120.817 46.6108C121.132 46.4683 121.362 46.2611 121.508 45.9893C121.654 45.7176 121.727 45.3911 121.727 45.0099C121.727 44.6255 121.652 44.2924 121.503 44.0107C121.357 43.7289 121.127 43.5135 120.812 43.3643C120.5 43.2119 120.091 43.1357 119.584 43.1357H117.655V52H116.119ZM121.145 47.4062L123.661 52H121.911L119.445 47.4062H121.145ZM123.987 41.8182H125.732L128.392 46.4467H128.502L131.161 41.8182H132.906L129.213 48.0028V52H127.681V48.0028L123.987 41.8182Z" fill="#ADADAD"/>
</svg>
