<svg width="157" height="56" viewBox="0 0 157 56" fill="none" xmlns="http://www.w3.org/2000/svg">
<path d="M19.075 29.6187C18.1453 29.9797 17.0953 29.5859 16.6359 28.7L8.10469 12.2718C7.10938 10.325 7.86406 7.95153 9.81094 6.95621C9.93125 6.90153 10.0406 6.84684 10.1609 6.79215C12.3594 5.90621 14.7766 7.19684 15.3891 9.42809L15.4 9.4609L20.2453 27.3C20.4969 28.2515 19.9938 29.2578 19.075 29.6187V29.6187Z" fill="#F98500"/>
<path d="M18.6156 21.3391L16.1984 22.2906C15.75 22.4547 15.2469 22.2359 15.0609 21.7875C14.8859 21.3391 15.1047 20.825 15.5531 20.65L18.1453 19.6328L18.6156 21.3391Z" fill="#FA6D00"/>
<path d="M19.5562 24.7625L17.4781 25.539C17.0297 25.6922 16.5375 25.4843 16.3406 25.0359C16.1656 24.5875 16.3844 24.0734 16.8437 23.8984L19.0969 23.0562L19.5562 24.7625Z" fill="#FA6D00"/>
<path d="M29.3672 13.5516C28.6344 13.0484 28.2625 12.1625 28.4266 11.2766C28.8312 9.24218 27.5187 7.26249 25.4734 6.84686C25.4516 6.84686 25.4187 6.83593 25.3969 6.83593C24.5547 6.69374 23.8547 6.09218 23.5922 5.27186C23.5266 5.07499 23.45 4.87811 23.3625 4.69218C22.4328 2.8328 20.1797 2.07811 18.3203 3.0078C16.5594 3.8828 15.7719 5.97186 16.5156 7.78749C16.8984 8.72811 17.0844 9.58124 16.4391 10.4891C15.2359 12.1844 15.6406 14.5359 17.3359 15.7281C17.3469 15.7391 17.3687 15.75 17.3797 15.7609C18.1125 16.275 18.4625 17.1719 18.2875 18.0469C17.8937 20.0812 19.2281 22.0609 21.2734 22.4547C23.1109 22.8047 24.9156 21.7656 25.5391 20.0047C27.3984 20.9344 29.6516 20.1687 30.5813 18.3203C31.4125 16.6469 30.8984 14.6234 29.3672 13.5516Z" fill="#598C44"/>
<path d="M37.8984 16.5594C37.4063 15.8156 37.3953 14.8531 37.8766 14.0984C39.025 12.3703 38.5438 10.0297 36.8156 8.88123C36.7938 8.87029 36.7719 8.84842 36.75 8.83748C35.6781 8.15935 35.7547 7.19685 35.6672 6.09217C35.5141 4.02498 33.6984 2.47185 31.6313 2.62498C29.6734 2.7781 28.1531 4.40779 28.1531 6.37654C28.1531 7.39373 28 8.24685 27.0703 8.84842C25.3203 9.96404 24.8063 12.2937 25.9328 14.0437C25.9438 14.0547 25.9547 14.0765 25.9656 14.0875C26.4469 14.8422 26.4469 15.8047 25.9438 16.5484C24.8172 18.2875 25.3094 20.6172 27.0484 21.7547C28.6125 22.7719 30.6906 22.4875 31.9156 21.0875C33.2938 22.6406 35.6672 22.7937 37.2203 21.4265C38.6203 20.2015 38.9047 18.1234 37.8984 16.5594V16.5594Z" fill="#5F9548"/>
<path d="M43.75 27.125L33.25 23.625L39.0359 6.27813C39.7359 4.18907 41.8687 2.57032 44.0891 2.625C45.4672 2.65782 46.7578 2.92032 47.8406 3.79532C49.5906 5.19532 50.2797 7.53594 49.5687 9.65782L43.75 27.125Z" fill="#FFB531"/>
<path d="M36.75 18.375V49.875H10.5V18.375L13.125 20.125L15.75 18.375L18.375 20.125L21 18.375L23.625 20.125L26.25 18.375L28.875 20.125L31.5 18.375L34.125 20.125L36.75 18.375Z" fill="#FFB531"/>
<path d="M36.75 25.6265V49.875H10.5V44.5703C20.1359 41.3328 29.6844 35.4375 36.75 25.6265Z" fill="#FCAC1F"/>
<path d="M47.25 18.375V49.875H36.75V18.375L39.375 20.125L42 18.375L44.625 20.125L47.25 18.375Z" fill="#F98500"/>
<path d="M10.6641 53.375C14.5301 53.375 17.6641 50.241 17.6641 46.375C17.6641 42.509 14.5301 39.375 10.6641 39.375C6.79807 39.375 3.66406 42.509 3.66406 46.375C3.66406 50.241 6.79807 53.375 10.6641 53.375Z" fill="#F35244"/>
<path d="M25.375 35L26.25 36.75C25.1672 37.8328 24.7297 39.4078 25.1016 40.9062L25.375 42H21.875V40.6656C21.875 38.2703 23.2312 36.0719 25.375 35Z" fill="#5F9548"/>
<path d="M20.2453 53.375C19.1406 53.375 18.1563 52.6531 17.8391 51.5922L15.8703 45.0188C15.3234 43.1922 16.5266 41.125 18.55 41.125C19.5344 41.125 20.4422 41.6391 20.9453 42.4812L22.75 45.5V50.8703C22.75 52.2484 21.6234 53.375 20.2453 53.375V53.375Z" fill="#FA9F0C"/>
<path d="M27.0047 53.375C28.1094 53.375 29.0937 52.6531 29.4109 51.5922L31.3797 45.0188C31.9375 43.1703 30.7125 41.125 28.7 41.125C27.7156 41.125 26.8078 41.6391 26.3047 42.4812L24.5 45.5V50.8703C24.5 52.2484 25.6266 53.375 27.0047 53.375V53.375Z" fill="#FA9F0C"/>
<path d="M23.625 41.125C25.0797 41.125 26.25 42.2953 26.25 43.75V50.75C26.25 52.2047 25.0797 53.375 23.625 53.375C22.1703 53.375 21 52.2047 21 50.75V43.75C21 42.2953 22.1703 41.125 23.625 41.125Z" fill="#FFB531"/>
<path d="M48.3875 3.11716C46.7688 1.8156 44.5484 1.42185 42.4375 2.03435C40.3813 2.63591 38.8391 4.0906 38.2047 6.00466L34.6719 16.614L34.2563 16.0015L32.7906 16.975V13.4422L35.2188 11.8234L34.2453 10.3687L32.7797 11.3422V7.3281H31.0297V11.3312L29.575 10.3578L28.6016 11.8125L31.0297 13.4312V16.964L29.575 15.9906L28.6016 17.4453L29.9469 18.3422L28.8641 19.064L26.7203 17.6422C26.6219 17.5765 26.5234 17.5328 26.4141 17.5109C26.4797 17.3469 26.5672 17.1828 26.6656 17.0297C27.3438 15.9906 27.3438 14.6562 26.6766 13.6062C26.0641 12.6765 26.0859 11.2875 26.7203 10.3578C26.9938 9.96404 28.1094 9.1656 28.4047 8.77185C28.9844 8.00623 29.05 7.13123 29.1156 6.3656C29.1594 5.76404 29.2031 5.23904 29.4656 4.83435C30.3078 3.48904 32.0906 3.08435 33.4359 3.92654C33.7203 4.10154 33.9609 4.33123 34.1688 4.58279C34.6391 5.17341 34.6828 5.76404 34.7375 6.56248C34.7594 6.83591 34.7813 7.13123 34.8141 7.43748L36.5531 7.21873C36.5203 6.95623 36.4984 6.69373 36.4875 6.44216C36.4219 5.4906 36.3453 4.51716 35.5469 3.49998C33.9609 1.48748 31.0516 1.14841 29.0391 2.72341C28.6234 3.05154 28.2625 3.44529 27.9781 3.89373C27.4969 4.65935 27.4313 5.4906 27.3656 6.21248C27.3547 6.37654 27.3438 6.52966 27.3219 6.68279C26.7859 6.32185 26.1734 6.07029 25.5281 5.94998C25.0031 5.86248 24.5656 5.4906 24.4016 4.98748C24.0188 3.79529 23.1875 2.81091 22.0719 2.24216C20.9781 1.66248 19.6984 1.5531 18.5172 1.93591C16.7781 2.5156 15.5094 4.14529 15.3563 6.0156C15.3016 6.72654 15.4766 7.34998 15.6516 7.90779C14.8313 6.56248 13.3984 5.70935 11.8234 5.61091L11.8563 1.7281L10.1063 1.71716L10.0844 4.24373L9.03438 1.5531L7.4375 2.22029L8.4875 4.91091L6.75938 3.07341L5.49063 4.2656L8.14844 7.10935C6.70469 8.59685 6.36563 10.8281 7.32813 12.6656L9.14375 16.1656L10.6969 15.3562L8.88125 11.8562C8.10469 10.3578 8.68438 8.50935 10.1828 7.73279C11.6813 6.95622 13.5297 7.53591 14.3063 9.03435C14.4047 9.23123 14.4813 9.4281 14.5469 9.64685L14.5797 9.75623L11.7578 10.8609L12.3922 12.4906L15.0391 11.4625V11.4734C14.875 12.0969 14.8313 12.7422 14.9406 13.3875L13.0375 14.1312L13.6719 15.7609L15.5531 15.0281C15.9906 15.7609 16.7453 16.439 16.7453 16.439L14.3063 17.3906L14.5906 18.1015L13.1359 19.075L10.9922 17.6531C10.5875 17.3797 10.0516 17.489 9.77813 17.8937C9.67969 18.0359 9.63594 18.2109 9.63594 18.375V36.75H11.3859V20.0047L12.6547 20.8469C12.95 21.0437 13.3328 21.0437 13.6281 20.8469L15.7719 19.425L17.9156 20.8469C18.2109 21.0437 18.5938 21.0437 18.8891 20.8469L21.0328 19.425L23.1766 20.8469C23.4719 21.0437 23.8547 21.0437 24.15 20.8469L26.2938 19.425L28.4375 20.8469C28.7328 21.0437 29.1156 21.0437 29.4109 20.8469L31.5547 19.425L33.6984 20.8469C33.9938 21.0437 34.3766 21.0437 34.6719 20.8469L35.9406 20.0047V49H32.4406V50.75H47.3156C47.7969 50.75 48.1906 50.3562 48.1906 49.875V18.375C48.1906 18.1125 48.0703 17.8718 47.8734 17.7078L50.4656 9.94216C51.2203 7.47029 50.4109 4.74685 48.3875 3.11716V3.11716ZM25.2328 14.5906C25.3094 14.7109 25.3641 14.8422 25.3969 14.9844L24.7953 15.8703L23.4609 12.589L24.6313 10.8609C24.325 12.1187 24.5219 13.5187 25.2328 14.5906ZM19.1297 18.5828C19.3594 17.6531 19.1734 16.6797 18.6375 15.8922C18.1234 15.1484 17.3031 14.6344 16.8875 13.825C16.6688 13.3984 16.5813 12.9062 16.6359 12.425C16.7672 11.3531 17.5766 10.4562 17.6969 9.38435C17.7844 8.59685 17.4672 7.83123 17.3031 7.05466C16.9203 5.33748 18.0031 3.59841 19.8516 3.51091C20.7484 3.4781 21.6016 3.86091 22.1703 4.54998C22.6734 5.17341 22.9031 5.99373 23.4063 6.6281C23.7781 7.09841 24.2813 7.43748 24.85 7.60154C25.4078 7.7656 26.0641 7.78748 26.4359 8.23591C25.7906 8.69529 25.2656 9.29685 24.9047 10.0078L23.6578 9.17654L22.6734 10.5984L21.1641 6.91248L19.5563 7.56872L21.0547 11.2656L19.3484 10.9375L18.9984 12.6437L21.8094 13.2781L23.1766 16.4937L21.4703 16.1656L21.2625 17.1937C21.2516 17.2047 19.5781 18.2547 19.1297 18.5828V18.5828ZM22.1703 18.1015L23.975 18.4734L24.0953 18.7687L23.625 19.075L22.1703 18.1015ZM33.4578 18.6265L34.1359 18.1672L33.8844 18.9109L33.4578 18.6265ZM37.625 20.0047L38.8938 20.8469C39.1891 21.0437 39.5719 21.0437 39.8672 20.8469L41.1359 20.0047V44.2531L37.6359 47.7531V20.0047H37.625ZM46.375 20.0047V47.7531L42.875 44.2531V20.0047L44.1438 20.8469C44.4391 21.0437 44.8219 21.0437 45.1172 20.8469L46.375 20.0047ZM42 45.8609L45.1391 49H38.8609L42 45.8609ZM48.7375 9.38435L45.7625 18.3093L44.625 19.064L42.4813 17.6422C42.1859 17.4453 41.8031 17.4453 41.5078 17.6422L39.3641 19.064C39.3641 19.064 37.1766 17.6093 37.1547 17.5984C36.8703 17.4453 36.5203 17.4672 36.2578 17.6422L36.1266 17.7297L39.8563 6.55154C40.3156 5.18435 41.4313 4.15623 42.9297 3.70779C44.4828 3.24841 46.1125 3.53279 47.2938 4.47341C48.7484 5.65466 49.3281 7.61248 48.7375 9.38435V9.38435Z" fill="black"/>
<path d="M40.9649 8.7757L46.2169 7.90214L46.5039 9.62764L41.2519 10.5012L40.9649 8.7757Z" fill="black"/>
<path d="M39.2134 14.0229L44.4654 13.1494L44.7524 14.8749L39.5004 15.7484L39.2134 14.0229Z" fill="black"/>
<path d="M28.7109 40.25C27.7484 40.2391 26.8188 40.6219 26.1406 41.3109C26.1297 41.3 26.1188 41.2891 26.1078 41.2672L25.9656 40.6875C25.9656 40.6766 25.9656 40.6766 25.9547 40.6656C25.6156 39.4734 26.2938 37.9641 26.8844 37.3734C27.1469 37.1109 27.2125 36.6953 27.0484 36.3672L26.1734 34.6172C25.9547 34.1797 25.4297 34.0047 25.0031 34.2234C22.5531 35.4375 21.0109 37.9422 21.0219 40.6656V41.1359C20.8141 40.9828 20.5844 40.8406 20.3547 40.7094C18.6594 39.8016 16.4609 40.3703 15.4547 41.9672C14.875 42.8969 14.7219 44.1547 15.05 45.2594L16.1875 49.0547C14.6781 52.0844 11.0031 53.3203 7.97344 51.8219C4.97656 50.3344 3.72969 46.7141 5.17344 43.6953C5.19531 43.6516 5.21719 43.6078 5.23906 43.5641L5.27188 46.5391L7.02187 46.5172L6.96719 42.875L10.4562 43.0391L10.5437 41.2891L7.50312 41.1469C8.41094 40.5891 9.46094 40.2828 10.5219 40.25C11.7906 40.2172 13.0375 40.5781 14.0875 41.2891L15.0609 39.8344C13.0922 38.5109 10.6312 38.15 8.36719 38.8391L8.73906 37.9641L7.13125 37.275L5.92813 40.075C5.84063 40.1406 5.74219 40.2172 5.65469 40.2938L2.98594 37.625L1.75 38.8609L4.44062 41.5516C4.38594 41.6281 4.33125 41.7047 4.27656 41.7813L1.41094 43.0063L2.1 44.6141L3.10625 44.1766C1.89219 48.3547 4.29844 52.7188 8.47656 53.9328C11.2328 54.7313 14.2078 53.9656 16.2422 51.9313C16.45 51.7234 16.6469 51.4938 16.8328 51.2641L17.0078 51.8328C17.5438 53.6266 19.425 54.6328 21.2188 54.0969C21.4703 54.0203 21.7 53.9219 21.9297 53.7906C22.9906 54.3813 24.2813 54.3813 25.3422 53.7906C26.9609 54.7203 29.0281 54.1516 29.9578 52.5328C30.0891 52.3141 30.1875 52.0734 30.2641 51.8219L32.2328 45.2484C32.3531 44.8109 32.4078 44.3516 32.3859 43.8922C32.375 41.8906 30.7344 40.25 28.7109 40.25V40.25ZM25.0141 36.2359L25.2109 36.6297C24.5219 37.5813 24.0297 38.9703 24.1172 40.2828C23.8656 40.2391 23.1766 40.2063 22.7609 40.3594C22.8484 38.7078 23.6797 37.1984 25.0141 36.2359ZM18.6813 51.3406L16.7125 44.7672C16.5266 44.1438 16.6141 43.4 16.9203 42.9078C17.4234 42.0984 18.6375 41.7922 19.5125 42.2625C19.9281 42.4813 20.0922 42.6344 20.2563 42.8422C20.1797 43.1375 20.1359 43.4438 20.1359 43.75V50.75C20.1359 51.3516 20.2891 51.9422 20.5844 52.4672C19.7422 52.6422 18.9219 52.15 18.6813 51.3406ZM21.875 50.75V43.75C21.875 42.7875 22.6625 42 23.625 42C24.5875 42 25.375 42.7875 25.375 43.75V50.75C25.375 51.7125 24.5875 52.5 23.625 52.5C22.6625 52.5 21.875 51.7125 21.875 50.75ZM30.5484 44.7672L28.5797 51.3406C28.3391 52.15 27.5078 52.6422 26.6766 52.4672C26.9719 51.9422 27.125 51.3516 27.125 50.75V43.75C27.125 43.4766 27.0922 43.2141 27.0266 42.9516C27.2563 42.6016 27.7812 42 28.7 42C29.7609 42 30.6141 42.8641 30.6141 43.9141C30.6359 44.1984 30.6141 44.4938 30.5484 44.7672V44.7672Z" fill="black"/>
<path d="M78.308 14.36C77.804 14.36 77.244 14.3227 76.628 14.248C76.0307 14.1547 75.284 14.0147 74.388 13.828L73.212 19.4H77.3L76.852 21.472H72.764L70.496 32H66.464L70.496 13.296C69.208 13.352 68.2747 13.8467 67.696 14.78C67.136 15.7133 66.856 17.1507 66.856 19.092C66.856 19.4467 66.8747 19.7547 66.912 20.016C66.968 20.2773 67.052 20.5293 67.164 20.772C67.2013 20.8467 67.22 20.9027 67.22 20.94C67.2387 20.9587 67.248 20.9773 67.248 20.996C66.2027 20.996 65.4373 20.7813 64.952 20.352C64.4853 19.904 64.252 19.2133 64.252 18.28C64.252 16.0587 65.0827 14.2947 66.744 12.988C68.424 11.6627 70.776 11 73.8 11C73.968 11 74.1733 11.0093 74.416 11.028C74.6587 11.0467 75.06 11.084 75.62 11.14C76.3667 11.2147 76.936 11.2707 77.328 11.308C77.7387 11.3267 78.112 11.336 78.448 11.336C78.952 11.336 79.4093 11.308 79.82 11.252C80.2307 11.196 80.6133 11.112 80.968 11C80.9493 11.0373 80.8653 11.3267 80.716 11.868C80.5667 12.4093 80.3893 12.8387 80.184 13.156C79.9787 13.4733 79.7173 13.7347 79.4 13.94C79.1013 14.1267 78.7373 14.2667 78.308 14.36ZM85.9516 19.288V19.484L86.2596 18H90.2916L88.2756 27.52C88.2382 27.688 88.2102 27.8467 88.1916 27.996C88.1729 28.1267 88.1636 28.2667 88.1636 28.416C88.1636 28.8267 88.2569 29.1347 88.4436 29.34C88.6302 29.5267 88.9196 29.62 89.3116 29.62C89.7969 29.62 90.2356 29.396 90.6276 28.948C91.0196 28.4813 91.3369 27.828 91.5796 26.988H92.7556C92.1582 28.7053 91.3836 30.0027 90.4316 30.88C89.4796 31.7387 88.3782 32.168 87.1276 32.168C86.3249 32.168 85.6809 31.944 85.1956 31.496C84.7289 31.048 84.4582 30.4133 84.3836 29.592C83.8049 30.4507 83.1609 31.0947 82.4516 31.524C81.7609 31.9533 81.0142 32.168 80.2116 32.168C79.0542 32.168 78.1396 31.776 77.4676 30.992C76.8142 30.208 76.4876 29.0973 76.4876 27.66C76.4876 26.6147 76.6462 25.5227 76.9636 24.384C77.2809 23.2453 77.7196 22.2093 78.2796 21.276C78.9702 20.1747 79.7729 19.3347 80.6876 18.756C81.6022 18.1587 82.6009 17.86 83.6836 17.86C84.4116 17.86 84.9716 17.9907 85.3636 18.252C85.7556 18.4947 85.9516 18.84 85.9516 19.288ZM85.6996 20.66C85.6996 20.38 85.5969 20.1373 85.3916 19.932C85.1862 19.708 84.9062 19.596 84.5516 19.596C83.5249 19.596 82.6102 20.4547 81.8076 22.172C81.0236 23.8893 80.6316 25.588 80.6316 27.268C80.6316 27.996 80.7342 28.5467 80.9396 28.92C81.1449 29.2747 81.5089 29.452 82.0316 29.452C82.5169 29.452 82.9836 29.2187 83.4316 28.752C83.8982 28.2853 84.2062 27.6973 84.3556 26.988L85.6996 20.66ZM94.4758 32H90.4438L93.4118 18H97.4438L97.0798 19.736C97.9011 19.0453 98.5451 18.588 99.0118 18.364C99.4971 18.1213 99.9825 18 100.468 18C101.046 18 101.513 18.2053 101.868 18.616C102.222 19.008 102.4 19.5027 102.4 20.1C102.4 20.6787 102.213 21.164 101.84 21.556C101.466 21.948 100.981 22.144 100.384 22.144C100.066 22.144 99.8145 22.0693 99.6278 21.92C99.4598 21.7707 99.3385 21.4627 99.2638 20.996C99.2078 20.6973 99.1425 20.5107 99.0678 20.436C98.9931 20.3427 98.8905 20.296 98.7598 20.296C98.4425 20.296 98.1438 20.3613 97.8638 20.492C97.5838 20.6227 97.2011 20.912 96.7158 21.36L94.4758 32ZM115.755 29.004C115.755 28.668 115.792 28.248 115.867 27.744C115.96 27.24 116.138 26.4373 116.399 25.336C116.66 24.272 116.828 23.5067 116.903 23.04C116.978 22.5733 117.015 22.1813 117.015 21.864C117.015 21.3973 116.931 21.0427 116.763 20.8C116.595 20.5573 116.343 20.436 116.007 20.436C115.559 20.436 115.139 20.6693 114.747 21.136C114.374 21.584 114.066 22.2093 113.823 23.012L111.919 32H107.887L109.931 22.34C109.968 22.228 109.987 22.116 109.987 22.004C110.006 21.892 110.015 21.7707 110.015 21.64C110.015 21.2667 109.94 20.968 109.791 20.744C109.642 20.52 109.436 20.408 109.175 20.408C108.69 20.408 108.251 20.6413 107.859 21.108C107.467 21.556 107.15 22.1907 106.907 23.012L105.003 32H100.971L103.939 18H107.971L107.663 19.456C108.13 18.9147 108.643 18.5133 109.203 18.252C109.763 17.9907 110.388 17.86 111.079 17.86C111.9 17.86 112.544 18.0653 113.011 18.476C113.496 18.868 113.814 19.4653 113.963 20.268C114.486 19.4653 115.064 18.868 115.699 18.476C116.334 18.084 117.052 17.888 117.855 17.888C118.844 17.888 119.61 18.1587 120.151 18.7C120.692 19.2413 120.963 20.0253 120.963 21.052C120.963 21.4813 120.907 21.9947 120.795 22.592C120.702 23.1707 120.506 24.0667 120.207 25.28C119.964 26.232 119.806 26.904 119.731 27.296C119.656 27.688 119.619 28.0147 119.619 28.276C119.619 28.668 119.712 28.9667 119.899 29.172C120.086 29.3587 120.366 29.452 120.739 29.452C121.206 29.452 121.607 29.2933 121.943 28.976C122.279 28.6587 122.662 27.996 123.091 26.988H124.267C123.67 28.724 122.942 30.0213 122.083 30.88C121.243 31.7387 120.235 32.168 119.059 32.168C118.014 32.168 117.202 31.888 116.623 31.328C116.044 30.7493 115.755 29.9747 115.755 29.004ZM132.245 19.288V19.484L132.553 18H136.585L134.569 27.52C134.531 27.688 134.503 27.8467 134.485 27.996C134.466 28.1267 134.457 28.2667 134.457 28.416C134.457 28.8267 134.55 29.1347 134.737 29.34C134.923 29.5267 135.213 29.62 135.605 29.62C136.09 29.62 136.529 29.396 136.921 28.948C137.313 28.4813 137.63 27.828 137.873 26.988H139.049C138.451 28.7053 137.677 30.0027 136.725 30.88C135.773 31.7387 134.671 32.168 133.421 32.168C132.618 32.168 131.974 31.944 131.489 31.496C131.022 31.048 130.751 30.4133 130.677 29.592C130.098 30.4507 129.454 31.0947 128.745 31.524C128.054 31.9533 127.307 32.168 126.505 32.168C125.347 32.168 124.433 31.776 123.761 30.992C123.107 30.208 122.781 29.0973 122.781 27.66C122.781 26.6147 122.939 25.5227 123.257 24.384C123.574 23.2453 124.013 22.2093 124.573 21.276C125.263 20.1747 126.066 19.3347 126.981 18.756C127.895 18.1587 128.894 17.86 129.977 17.86C130.705 17.86 131.265 17.9907 131.657 18.252C132.049 18.4947 132.245 18.84 132.245 19.288ZM131.993 20.66C131.993 20.38 131.89 20.1373 131.685 19.932C131.479 19.708 131.199 19.596 130.845 19.596C129.818 19.596 128.903 20.4547 128.101 22.172C127.317 23.8893 126.925 25.588 126.925 27.268C126.925 27.996 127.027 28.5467 127.233 28.92C127.438 29.2747 127.802 29.452 128.325 29.452C128.81 29.452 129.277 29.2187 129.725 28.752C130.191 28.2853 130.499 27.6973 130.649 26.988L131.993 20.66ZM140.769 32H136.737L139.705 18H143.737L143.373 19.736C144.194 19.0453 144.838 18.588 145.305 18.364C145.79 18.1213 146.275 18 146.761 18C147.339 18 147.806 18.2053 148.161 18.616C148.515 19.008 148.693 19.5027 148.693 20.1C148.693 20.6787 148.506 21.164 148.133 21.556C147.759 21.948 147.274 22.144 146.677 22.144C146.359 22.144 146.107 22.0693 145.921 21.92C145.753 21.7707 145.631 21.4627 145.557 20.996C145.501 20.6973 145.435 20.5107 145.361 20.436C145.286 20.3427 145.183 20.296 145.053 20.296C144.735 20.296 144.437 20.3613 144.157 20.492C143.877 20.6227 143.494 20.912 143.009 21.36L140.769 32ZM149.308 18H150.232L151.072 14.136L155.216 13.576L154.264 18H155.944L155.72 19.12H154.04L152.248 27.52C152.211 27.688 152.183 27.8467 152.164 27.996C152.145 28.1267 152.136 28.2667 152.136 28.416C152.136 28.7893 152.22 29.06 152.388 29.228C152.575 29.3773 152.873 29.452 153.284 29.452C153.807 29.452 154.301 29.228 154.768 28.78C155.235 28.3133 155.58 27.716 155.804 26.988H156.98C156.383 28.6867 155.58 29.9747 154.572 30.852C153.564 31.7293 152.407 32.168 151.1 32.168C150.167 32.168 149.429 31.8787 148.888 31.3C148.365 30.7027 148.104 29.872 148.104 28.808C148.104 28.5653 148.123 28.2947 148.16 27.996C148.197 27.6787 148.253 27.3427 148.328 26.988L150.008 19.12H149.084L149.308 18Z" fill="white"/>
<path d="M72.0092 44.0348C71.9131 43.7332 71.7839 43.4631 71.6214 43.2244C71.4624 42.9825 71.2718 42.777 71.0497 42.608C70.8277 42.4356 70.5741 42.3047 70.2891 42.2152C70.0073 42.1257 69.6974 42.081 69.3594 42.081C68.786 42.081 68.2689 42.2285 67.8082 42.5234C67.3475 42.8184 66.983 43.2509 66.7145 43.821C66.4493 44.3878 66.3168 45.0821 66.3168 45.9041C66.3168 46.7294 66.451 47.4271 66.7195 47.9972C66.9879 48.5672 67.3558 48.9998 67.8232 49.2947C68.2905 49.5897 68.8224 49.7372 69.419 49.7372C69.9725 49.7372 70.4548 49.6245 70.8658 49.3991C71.2801 49.1738 71.5999 48.8556 71.8253 48.4446C72.054 48.0303 72.1683 47.5431 72.1683 46.983L72.5661 47.0575H69.6527V45.7898H73.6548V46.9482C73.6548 47.8033 73.4725 48.5457 73.108 49.1754C72.7467 49.8018 72.2462 50.2857 71.6065 50.6271C70.9702 50.9685 70.241 51.1392 69.419 51.1392C68.4976 51.1392 67.6889 50.9271 66.9929 50.5028C66.3002 50.0786 65.7599 49.477 65.3722 48.6982C64.9844 47.916 64.7905 46.9879 64.7905 45.9141C64.7905 45.102 64.9032 44.3729 65.1286 43.7266C65.3539 43.0803 65.6705 42.5317 66.0781 42.081C66.4891 41.6269 66.9714 41.2805 67.5249 41.0419C68.0817 40.8 68.6899 40.679 69.3494 40.679C69.8996 40.679 70.4117 40.7602 70.8857 40.9226C71.3629 41.085 71.7872 41.3153 72.1584 41.6136C72.5329 41.9119 72.8428 42.2666 73.0881 42.6776C73.3333 43.0852 73.4991 43.5376 73.5852 44.0348H72.0092ZM75.6049 51V40.8182H79.2342C80.023 40.8182 80.6776 40.9541 81.198 41.2259C81.7217 41.4976 82.1127 41.8738 82.3713 42.3544C82.6298 42.8317 82.7591 43.3835 82.7591 44.0099C82.7591 44.633 82.6281 45.1816 82.3663 45.6555C82.1078 46.1262 81.7167 46.4924 81.193 46.7543C80.6726 47.0161 80.0181 47.147 79.2292 47.147H76.4799V45.8246H79.09C79.5872 45.8246 79.9915 45.7533 80.3031 45.6108C80.618 45.4683 80.8483 45.2611 80.9941 44.9893C81.14 44.7176 81.2129 44.3911 81.2129 44.0099C81.2129 43.6255 81.1383 43.2924 80.9892 43.0107C80.8433 42.7289 80.613 42.5135 80.2981 42.3643C79.9866 42.2119 79.5772 42.1357 79.0701 42.1357H77.1412V51H75.6049ZM80.6312 46.4062L83.1468 51H81.3968L78.9309 46.4062H80.6312ZM93.4728 45.9091C93.4728 46.9962 93.274 47.9309 92.8762 48.7131C92.4785 49.492 91.9333 50.0919 91.2406 50.5128C90.5512 50.9304 89.7673 51.1392 88.889 51.1392C88.0074 51.1392 87.2202 50.9304 86.5275 50.5128C85.8381 50.0919 85.2946 49.4903 84.8968 48.7081C84.4991 47.9259 84.3002 46.9929 84.3002 45.9091C84.3002 44.822 84.4991 43.889 84.8968 43.1101C85.2946 42.3279 85.8381 41.728 86.5275 41.3104C87.2202 40.8894 88.0074 40.679 88.889 40.679C89.7673 40.679 90.5512 40.8894 91.2406 41.3104C91.9333 41.728 92.4785 42.3279 92.8762 43.1101C93.274 43.889 93.4728 44.822 93.4728 45.9091ZM91.9515 45.9091C91.9515 45.0805 91.8173 44.3828 91.5488 43.8161C91.2837 43.246 90.9191 42.8151 90.4551 42.5234C89.9944 42.2285 89.4724 42.081 88.889 42.081C88.3024 42.081 87.7787 42.2285 87.318 42.5234C86.8573 42.8151 86.4927 43.246 86.2243 43.8161C85.9591 44.3828 85.8265 45.0805 85.8265 45.9091C85.8265 46.7377 85.9591 47.437 86.2243 48.0071C86.4927 48.5739 86.8573 49.0047 87.318 49.2997C87.7787 49.5914 88.3024 49.7372 88.889 49.7372C89.4724 49.7372 89.9944 49.5914 90.4551 49.2997C90.9191 49.0047 91.2837 48.5739 91.5488 48.0071C91.8173 47.437 91.9515 46.7377 91.9515 45.9091ZM103.845 44.1293H102.294C102.234 43.7978 102.123 43.5062 101.961 43.2543C101.798 43.0024 101.599 42.7886 101.364 42.6129C101.129 42.4373 100.865 42.3047 100.574 42.2152C100.285 42.1257 99.9786 42.081 99.6538 42.081C99.0671 42.081 98.5418 42.2285 98.0778 42.5234C97.6171 42.8184 97.2525 43.2509 96.984 43.821C96.7189 44.3911 96.5863 45.0871 96.5863 45.9091C96.5863 46.7377 96.7189 47.437 96.984 48.0071C97.2525 48.5772 97.6187 49.008 98.0827 49.2997C98.5468 49.5914 99.0688 49.7372 99.6488 49.7372C99.9703 49.7372 100.275 49.6941 100.564 49.608C100.855 49.5185 101.119 49.3875 101.354 49.2152C101.589 49.0429 101.788 48.8324 101.951 48.5838C102.116 48.3319 102.231 48.0436 102.294 47.7188L103.845 47.7237C103.762 48.2242 103.601 48.6849 103.363 49.1058C103.127 49.5234 102.824 49.8847 102.453 50.1896C102.085 50.4912 101.664 50.7249 101.19 50.8906C100.716 51.0563 100.199 51.1392 99.6388 51.1392C98.7572 51.1392 97.9717 50.9304 97.2823 50.5128C96.5929 50.0919 96.0494 49.4903 95.6516 48.7081C95.2572 47.9259 95.06 46.9929 95.06 45.9091C95.06 44.822 95.2589 43.889 95.6566 43.1101C96.0543 42.3279 96.5979 41.728 97.2873 41.3104C97.9767 40.8894 98.7605 40.679 99.6388 40.679C100.179 40.679 100.683 40.7569 101.15 40.9126C101.621 41.0651 102.043 41.2905 102.418 41.5888C102.792 41.8838 103.102 42.245 103.348 42.6726C103.593 43.0968 103.759 43.5824 103.845 44.1293ZM105.683 51V40.8182H112.067V42.1406H107.219V45.2429H111.733V46.5604H107.219V49.6776H112.126V51H105.683ZM114.119 51V40.8182H117.748C118.537 40.8182 119.191 40.9541 119.712 41.2259C120.235 41.4976 120.626 41.8738 120.885 42.3544C121.143 42.8317 121.273 43.3835 121.273 44.0099C121.273 44.633 121.142 45.1816 120.88 45.6555C120.621 46.1262 120.23 46.4924 119.707 46.7543C119.186 47.0161 118.532 47.147 117.743 47.147H114.994V45.8246H117.604C118.101 45.8246 118.505 45.7533 118.817 45.6108C119.132 45.4683 119.362 45.2611 119.508 44.9893C119.654 44.7176 119.727 44.3911 119.727 44.0099C119.727 43.6255 119.652 43.2924 119.503 43.0107C119.357 42.7289 119.127 42.5135 118.812 42.3643C118.5 42.2119 118.091 42.1357 117.584 42.1357H115.655V51H114.119ZM119.145 46.4062L121.661 51H119.911L117.445 46.4062H119.145ZM121.987 40.8182H123.732L126.392 45.4467H126.502L129.161 40.8182H130.906L127.213 47.0028V51H125.681V47.0028L121.987 40.8182Z" fill="white"/>
</svg>
